PathFileType	4	(X/Y/Z)	C:\Users\Basilio\Documents\Thesis Gigler\squatting_fais\c3dfiles\075\SJ_pre3\markers_experimental.trc
DataRate	CameraRate	NumFrames	NumMarkers	Units	OrigDataRate	OrigDataStartFrame	OrigNumFrames
200.000000	200.000000	4	61	mm	200.000000	0	1664
Frame#	Time	FHD			LBHD			RBHD			C7			T10			CLAV			LSHO			LUUPA			LMUPA			LDUPA			LLEP			LMEP			LRAD			LUL			LRFIN			RSHO			RUPA1			RMUPA			RDUPA			RLEP			RMEP			RRAD			RUL			RUFIN			LASI			RASI			USACR			LSACR			RSACR			LTHI1			LTHI2			LTHI3			LTHI4			LLFC			LMFC			LTIB1			LTIB2			LTIB3			LTIB4			LLMAL			LMMAL			LHEE			LMT1			LMT2			LMT5			RTHI			RTHI2			RTHI3			RTHI4			RLFC			RMFC			RTIB1			RTIB2			RTIB3			RTIB4			RLMAL			RMMAL			RHEE			RMT1			RMT2			RMT5			
		X1	Y1	Z1	X2	Y2	Z2	X3	Y3	Z3	X4	Y4	Z4	X5	Y5	Z5	X6	Y6	Z6	X7	Y7	Z7	X8	Y8	Z8	X9	Y9	Z9	X10	Y10	Z10	X11	Y11	Z11	X12	Y12	Z12	X13	Y13	Z13	X14	Y14	Z14	X15	Y15	Z15	X16	Y16	Z16	X17	Y17	Z17	X18	Y18	Z18	X19	Y19	Z19	X20	Y20	Z20	X21	Y21	Z21	X22	Y22	Z22	X23	Y23	Z23	X24	Y24	Z24	X25	Y25	Z25	X26	Y26	Z26	X27	Y27	Z27	X28	Y28	Z28	X29	Y29	Z29	X30	Y30	Z30	X31	Y31	Z31	X32	Y32	Z32	X33	Y33	Z33	X34	Y34	Z34	X35	Y35	Z35	X36	Y36	Z36	X37	Y37	Z37	X38	Y38	Z38	X39	Y39	Z39	X40	Y40	Z40	X41	Y41	Z41	X42	Y42	Z42	X43	Y43	Z43	X44	Y44	Z44	X45	Y45	Z45	X46	Y46	Z46	X47	Y47	Z47	X48	Y48	Z48	X49	Y49	Z49	X50	Y50	Z50	X51	Y51	Z51	X52	Y52	Z52	X53	Y53	Z53	X54	Y54	Z54	X55	Y55	Z55	X56	Y56	Z56	X57	Y57	Z57	X58	Y58	Z58	X59	Y59	Z59	X60	Y60	Z60	X61	Y61	Z61	

1	0	-185.277816772461	1704.786865234375	-923.3804321289065	-323.8138732910157	1565.683227539063	-965.6949462890627	-261.7397766113282	1606.603271484375	-819.8941650390627	-346.4403076171876	1459.409545898438	-911.146667480469	-366.2703857421876	1133.995727539063	-913.9443969726565	-204.6252593994141	1396.254760742188	-918.6336669921877	-256.8969116210938	1430.383911132813	-1075.031616210938	-314.5529785156251	1282.116455078125	-1234.223876953125	-279.7284851074219	1245.839721679688	-1227.140869140625	-313.7619018554688	1223.176025390625	-1272.725708007813	-310.6492919921876	1139.278930664063	-1299.481567382813	-387.5931701660157	1128.863037109375	-1248.146362304688	-277.3001403808594	955.555358886719	-1133.474975585938	-236.7065734863282	921.8599853515627	-1186.54541015625	-227.0022583007813	955.4460449218752	-1095.631958007813	-236.6212768554688	1432.611694335938	-754.5637207031251	-292.3765563964844	1289.443237304688	-595.9655761718751	-264.5285339355469	1247.843994140625	-599.8823242187501	-302.5931701660157	1231.686889648438	-555.4841308593751	-304.3698120117188	1163.076049804688	-528.9065551757814	-379.6402282714844	1138.079956054688	-559.7122192382814	-225.2725219726563	940.2786254882815	-642.3683471679689	-265.4633789062501	966.598083496094	-701.8872070312501	-203.9672088623047	960.5457763671877	-737.3349609375001	-203.7580261230469	949.408874511719	-1044.30859375	-194.2032775878907	961.1314697265627	-791.373474121094	-354.7805175781251	1036.934326171875	-915.7946777343752	-363.3516235351563	1005.005432128906	-942.0124511718752	-360.6807250976563	1007.783630371094	-884.9273681640627	-279.4524536132813	719.8666992187501	-1117.527709960938	-256.0043640136719	639.0718383789064	-1118.98974609375	-208.1844329833985	640.5025024414064	-1104.547729492188	-286.4646301269532	588.1584472656251	-1108.275512695313	-297.8431701660157	480.6734924316407	-1097.929443359375	-248.8710479736329	462.9558105468751	-985.6745605468752	-253.9421081542969	353.5020751953126	-1079.757934570313	-319.6073303222657	321.5103759765626	-1126.085327148438	-277.8424072265626	310.9698486328126	-1110.032104492188	-285.8255310058594	229.6546630859376	-1086.287963867188	-373.7298278808594	95.56859588623048	-1103.174926757813	-334.5754089355469	100.320541381836	-1026.0908203125	-421.8607177734376	50.84547805786134	-1057.171264648438	-208.7456817626954	51.72001266479494	-1069.146362304688	-216.2623748779297	56.90726852416994	-1117.519775390625	-261.7509765625001	42.29999923706055	-1165.046264648438	-271.3696289062501	775.6190185546877	-713.3931884765626	-236.8001251220704	719.8946533203126	-711.9784545898439	-205.7505798339844	723.2686157226564	-723.6253051757814	-270.8128662109376	640.7794189453126	-716.3759155273439	-293.7183532714844	487.3796691894532	-739.2427368164064	-254.2720794677735	466.7607421875001	-858.898620605469	-253.3970336914063	333.3270568847657	-786.5879516601565	-310.5898742675782	263.9569396972657	-723.1762695312501	-273.8165893554688	254.3657684326172	-752.4206542968751	-284.6338500976563	207.0713348388672	-784.7435302734377	-361.7518005371094	91.51433563232423	-741.1393432617189	-326.0310058593751	107.5204620361328	-821.5668945312502	-408.467254638672	49.94345855712892	-795.765319824219	-197.9311218261719	58.5444679260254	-774.6625976562502	-206.0004272460938	58.9527931213379	-734.5861816406251	-245.1049804687501	35.72880172729493	-684.7298583984376	
2	0.005	-186.2562713623047	1704.2548828125	-923.2604980468752	-323.9436645507813	1565.636108398438	-965.7578735351565	-261.8141479492188	1606.602661132813	-820.0073242187502	-346.5023498535157	1459.41162109375	-911.1927490234377	-366.3223571777344	1134.02392578125	-913.8699951171877	-204.7638854980469	1396.244750976563	-918.6306762695315	-257.0420837402344	1430.363525390625	-1075.02392578125	-314.7436523437501	1282.046142578125	-1234.214111328125	-279.9263000488282	1245.697143554688	-1227.097534179688	-314.0400695800782	1223.096801757813	-1272.64208984375	-310.9003906250001	1139.152954101563	-1299.453002929688	-387.8286743164064	1128.807495117188	-1248.055908203125	-277.4122924804688	955.4942016601565	-1133.416381835938	-236.9061431884766	921.7922363281252	-1186.500244140625	-227.0747833251954	955.4321289062502	-1095.61376953125	-236.7061767578126	1432.638793945313	-754.5934448242189	-292.3897094726563	1289.509033203125	-595.9323120117189	-264.4102478027344	1247.9873046875	-599.7232055664064	-302.5477905273438	1231.663452148438	-555.3968505859376	-304.3628540039063	1163.136108398438	-528.8627929687501	-379.6127929687501	1138.142822265625	-559.6117553710939	-225.3429565429688	940.288513183594	-642.2958984375001	-265.4941711425782	966.600280761719	-701.8059082031251	-204.0633239746094	960.5706787109377	-737.3674316406251	-203.8389434814454	949.409118652344	-1044.23095703125	-194.3122863769532	961.1360473632815	-791.2896118164065	-354.8056030273438	1036.943969726563	-915.7026977539065	-363.4091796875001	1005.018249511719	-941.9121704101565	-360.7173767089844	1007.772888183594	-884.8924560546877	-279.6057434082032	719.7994384765626	-1117.490966796875	-256.1048278808594	639.0598144531251	-1118.9482421875	-208.2881317138672	640.5014038085939	-1104.548217773438	-286.5812377929688	588.1768188476564	-1108.20947265625	-297.8960876464844	480.7175292968751	-1097.831665039063	-248.9597473144532	462.9561157226564	-985.6151123046877	-253.9620056152344	353.4751281738282	-1079.760498046875	-319.5462036132813	321.4902038574219	-1126.080322265625	-277.0046997070313	310.8334960937501	-1109.551635742188	-285.8159484863282	229.6783142089844	-1086.279174804688	-373.7123718261719	95.58493041992189	-1103.143432617188	-334.5757141113282	100.3106079101563	-1026.084350585938	-421.8789062500001	50.83941650390626	-1057.161254882813	-208.7864837646485	51.75071716308595	-1069.151733398438	-216.3038024902344	56.89086914062501	-1117.4912109375	-261.7737426757813	42.27986907958985	-1165.055541992188	-271.3786926269532	775.6128540039065	-713.3449707031251	-236.8474121093751	719.9289550781251	-711.8970336914064	-205.7481842041016	723.2894897460939	-723.5237426757814	-270.8583374023438	640.7597656250001	-716.3126220703126	-293.7253417968751	487.3826293945314	-739.2251586914064	-254.3213195800782	466.8133239746095	-858.871032714844	-253.4185180664063	333.3422546386719	-786.4674072265627	-310.5898742675782	263.9465942382813	-723.1920166015626	-273.8190002441407	254.369369506836	-752.4216308593751	-284.6479492187501	207.0709228515626	-784.7186279296877	-361.7504882812501	91.49985504150392	-741.1343994140626	-326.0982055664063	107.5834350585938	-821.5755004882815	-408.4485473632814	49.93199920654298	-795.793884277344	-197.7856597900391	58.59893035888673	-774.5540161132815	-205.9657745361329	59.0419273376465	-734.5073242187501	-245.1132202148438	35.77500534057618	-684.7306518554689	
3	0.01	-186.3493194580078	1704.25	-923.3260498046877	-324.0263366699219	1565.707275390625	-965.7631835937502	-261.9016723632813	1606.657836914063	-820.061218261719	-346.6400146484376	1459.427490234375	-911.1932373046877	-366.3842468261719	1134.052124023438	-913.8137817382815	-204.8696441650391	1396.256225585938	-918.6566162109377	-257.1661376953126	1430.345947265625	-1075.074951171875	-315.0052185058594	1281.935913085938	-1234.2041015625	-280.1359558105469	1245.6025390625	-1227.04345703125	-314.2513427734376	1223.070068359375	-1272.597900390625	-311.0583801269532	1139.060424804688	-1299.40771484375	-388.034393310547	1128.759765625	-1247.993286132813	-277.5649414062501	955.4766235351565	-1133.389404296875	-237.1102447509766	921.6936645507815	-1186.41796875	-227.1738739013672	955.4123535156252	-1095.549438476563	-236.7646484375001	1432.714233398438	-754.5371704101564	-292.4046936035157	1289.576049804688	-595.8964843750001	-264.5608215332032	1247.983520507813	-599.8334960937501	-302.6208801269532	1231.821411132813	-555.4333496093751	-304.3225708007813	1163.185424804688	-528.8031616210939	-379.5875549316407	1138.225952148438	-559.5910644531251	-225.3825073242188	940.329528808594	-642.2114257812501	-265.5284118652344	966.628601074219	-701.7254028320314	-204.0842895507813	960.6115722656252	-737.2444458007814	-203.9419555664063	949.393981933594	-1044.196044921875	-194.3345947265626	961.1406250000002	-791.2390136718752	-354.9178466796876	1036.97900390625	-915.6005859375002	-363.4927368164063	1004.992431640625	-941.8298339843752	-360.8096618652344	1007.798034667969	-884.7089843750002	-279.7048339843751	719.8015747070314	-1117.448608398438	-256.2016601562501	639.0864868164064	-1118.924560546875	-208.385726928711	640.5027465820314	-1104.496948242188	-286.7092590332032	588.1384887695314	-1108.186767578125	-297.9544677734376	480.707489013672	-1097.873657226563	-249.0073699951172	462.9541931152345	-985.5803833007815	-253.9630584716797	353.4952697753907	-1079.71435546875	-319.6571655273438	321.5391845703126	-1125.995361328125	-277.8492736816407	310.9994506835938	-1109.993530273438	-285.7864379882813	229.7023010253907	-1086.216796875	-373.7554931640626	95.58666992187501	-1103.128173828125	-334.5797729492188	100.3068389892578	-1026.104736328125	-421.8627929687501	50.8390579223633	-1057.152099609375	-208.8074645996094	51.73701477050783	-1069.11181640625	-216.320297241211	56.90864181518556	-1117.492065429688	-261.8040771484376	42.34801864624024	-1165.056640625	-271.4449768066407	775.6291503906252	-713.2946777343751	-236.895248413086	719.9155883789064	-711.8174438476564	-205.808334350586	723.2904052734376	-723.4998168945314	-270.9279479980469	640.7704467773439	-716.2346801757814	-293.7594909667969	487.3918457031251	-739.1658325195314	-254.3727264404297	466.8723754882814	-858.834899902344	-253.4185180664063	333.3422546386719	-786.4674072265627	-310.5881042480469	263.9480895996094	-723.1916503906251	-273.8151245117188	254.382064819336	-752.4155883789064	-284.0628051757813	206.9217681884766	-784.2225341796877	-361.7870178222657	91.50593566894533	-741.0900268554689	-326.0906066894532	107.5027465820313	-821.5903930664065	-408.4658813476564	49.90452957153322	-795.8311767578127	-197.8157806396485	58.59938812255861	-774.5722656250002	-205.9495544433594	59.06502914428712	-734.4818115234376	-245.0840301513672	35.77085876464844	-684.6752929687501	
4	0.015	-185.5069427490235	1704.729858398438	-923.6376953125002	-324.0840759277344	1565.65185546875	-965.789489746094	-261.9898681640626	1606.708129882813	-820.1151123046877	-346.7394714355469	1459.447998046875	-911.154968261719	-366.3767089843751	1134.035888671875	-913.7376708984377	-204.9980926513672	1396.260498046875	-918.6484985351565	-257.3443603515626	1430.306640625	-1075.063354492188	-315.1685791015626	1281.848022460938	-1234.161499023438	-280.3220214843751	1245.508056640625	-1227.025634765625	-314.4655761718751	1222.956420898438	-1272.518920898438	-311.2517700195313	1138.986328125	-1299.32861328125	-388.1892700195314	1128.716918945313	-1247.937622070313	-277.7002563476563	955.405944824219	-1133.314453125	-237.2241973876954	921.6441650390627	-1186.327880859375	-227.327133178711	955.3792114257815	-1095.510498046875	-236.8708953857422	1432.743530273438	-754.5447998046876	-292.4421386718751	1289.646606445313	-595.8482055664064	-264.6431274414063	1248.072265625	-600.0092163085939	-302.5254821777344	1231.840576171875	-555.2762451171876	-304.2781982421876	1163.274536132813	-528.7575683593751	-379.5822753906251	1138.276611328125	-559.3817749023439	-225.4383392333985	940.3447265625002	-642.1389160156251	-265.6520690917969	966.6526489257815	-701.6509399414064	-204.1710815429688	960.604675292969	-737.2173461914064	-204.0099639892579	949.3699951171877	-1044.13916015625	-194.4280242919922	961.1548461914065	-791.1629028320315	-354.9667968750001	1037.010131835938	-915.5277099609377	-363.6049499511719	1005.028503417969	-941.7548828125002	-360.8365783691407	1007.802856445313	-884.6750488281252	-279.8551940917969	719.7951049804689	-1117.4287109375	-256.3491210937501	639.0944213867189	-1118.85595703125	-208.4999237060547	640.4753417968751	-1104.441040039063	-286.7792358398438	588.1296997070314	-1108.163330078125	-297.9920349121094	480.7154846191407	-1097.79296875	-249.0640106201172	462.9727478027345	-985.5650634765627	-253.990219116211	353.4715576171876	-1079.677001953125	-319.6470642089844	321.5055236816407	-1126.015014648438	-277.0658874511719	310.8551635742188	-1109.485473632813	-285.8376159667969	229.7068481445313	-1086.180053710938	-373.7166137695313	95.59551239013673	-1103.14404296875	-334.6038513183594	100.2981414794922	-1026.079711914063	-421.8537597656251	50.81673812866212	-1057.175537109375	-208.7987670898438	51.75836181640626	-1069.106567382813	-216.3208465576172	56.90967941284181	-1117.505737304688	-261.7557983398438	42.33581924438477	-1165.052856445313	-271.4760437011719	775.625183105469	-713.1952514648439	-236.9146118164063	719.9062500000001	-711.7515869140626	-205.8261260986329	723.3047485351564	-723.4044189453126	-270.9604797363282	640.7716674804689	-716.1434326171876	-293.7991027832032	487.3731689453126	-739.1152343750001	-254.3639068603516	466.8711547851564	-858.7661132812502	-253.4316864013672	333.3282775878907	-786.432067871094	-310.6054687500001	263.9283447265626	-723.1273193359376	-273.8560180664063	254.3525543212891	-752.3929443359376	-284.7036743164063	207.0854034423829	-784.6643066406252	-361.7833251953126	91.47927856445314	-741.1011352539064	-326.1314392089844	107.5338363647461	-821.6358032226565	-408.4201965332032	49.91529464721681	-795.8048095703127	-197.9593505859376	58.56383514404298	-774.6834106445315	-206.0424804687501	58.94748306274415	-734.5946655273439	-245.1155853271485	35.78318405151368	-684.7068481445314	
